<svg xmlns="http://www.w3.org/2000/svg" width="18" height="21" viewBox="0 0 18 21" fill="none">
<path d="M6.41296 17.7627H11.6248V17.8159C11.6248 19.2551 10.4581 20.4218 9.01886 20.4218C7.57966 20.4218 6.41296 19.2551 6.41296 17.8159V17.7627Z" fill="#344767"/>
<path d="M7.7425 1.96774L10.4548 1.96774C11.3589 1.96774 13.289 3.11944 14.0711 4.20139C16.9961 7.76457 13.5925 10.1045 17.7407 14.4654C17.9846 14.7219 18.0207 15.1911 17.9914 15.613C17.955 16.136 17.4822 16.4887 16.958 16.4911C10.7214 16.5204 7.73389 16.4489 1.29023 16.4846C1.09225 16.4857 0.889017 16.4603 0.709966 16.3758C-0.640163 15.7388 0.350235 14.4655 0.350235 14.4655C4.01977 11.2746 1.46705 7.12639 3.96659 4.20139C4.77686 3.10418 6.73204 1.96772 7.7425 1.96774Z" fill="#344767"/>
<path d="M7.68932 1.01045C7.68932 0.452395 8.14171 0 8.69977 0H9.33795C9.89601 0 10.3484 0.452395 10.3484 1.01045V1.96774L7.68932 1.96875V1.01045Z" fill="#344767"/>
</svg>