<?xml version="1.0" encoding="UTF-8"?>
<svg xmlns="http://www.w3.org/2000/svg" width="30" height="30" viewBox="0 0 30 30" fill="none">
  <path d="M15 30C23.2708 30 29.9756 23.2952 29.9756 15.0244C29.7605 3.19288 19.4594 -0.332496 14.405 0.0241629C13.691 0.0745487 13.206 0.706901 13.206 1.42272V5.9766C13.206 6.83815 13.9045 7.53656 14.766 7.53656H15.39C16.2515 7.53656 16.95 6.83814 16.95 5.9766V3.80295C22.3102 4.72785 26.3877 9.39993 26.3877 15.0244C26.3877 21.3136 21.2893 26.4121 15 26.4121C8.71074 26.4121 3.61228 21.3136 3.61228 15.0244C3.61228 11.8289 4.92846 8.94078 7.04828 6.87265C7.68425 6.25219 7.82885 5.24172 7.27385 4.54788L7.06123 4.28208C6.53151 3.61984 5.56309 3.49657 4.924 4.05401C1.76928 6.80571 0.523873 9.65062 0.0243683 15.0244C0.0243683 23.2952 6.72919 30 15 30Z" fill="#03D9C4" fill-opacity="0.4"/>
  <path d="M9.23206 11.4134C8.62053 10.8094 8.61444 9.82396 9.21845 9.21243C9.82247 8.60091 10.8079 8.59482 11.4194 9.19883L16.0485 13.7711C16.66 14.3751 16.6661 15.3605 16.0621 15.972C15.4581 16.5835 14.4727 16.5896 13.8612 15.9856L9.23206 11.4134Z" fill="url(#paint0_linear_2176_4560)"/>
  <defs>
    <linearGradient id="paint0_linear_2176_4560" x1="1.40787" y1="2.85714" x2="33.089" y2="15.2014" gradientUnits="userSpaceOnUse">
      <stop stop-color="#03D9C4"/>
      <stop offset="1" stop-color="#038F81"/>
    </linearGradient>
  </defs>
</svg>