<?xml version="1.0" encoding="UTF-8"?>
<svg xmlns="http://www.w3.org/2000/svg" width="30" height="28" viewBox="0 0 30 28" fill="none">
  <path d="M0 24.1667C0 25.9156 1.41777 27.3333 3.16667 27.3333H16.8333C18.5822 27.3333 20 25.9156 20 24.1667V9H13.5C12.5795 9 11.8333 8.25381 11.8333 7.33333V0.666667H3.16667C1.41776 0.666667 0 2.08443 0 3.83333V24.1667Z" fill="#E92FED" fill-opacity="0.4"/>
  <path d="M11.8333 0.666667V7.33333C11.8333 8.25381 12.5795 9 13.5 9H20L11.8333 0.666667Z" fill="url(#paint0_linear_2176_4591)"/>
  <path d="M4.9114 22.3333H4.38654C3.85089 22.3333 3.41666 21.8991 3.41666 21.3635C3.41666 21.0196 3.68584 20.7358 4.02926 20.7178L4.23462 20.7069C4.72194 20.6813 5.1963 20.4624 5.43618 20.0374C5.74785 19.4853 5.86869 18.9319 5.99999 18.0833C6.11851 17.5043 6.26732 17.1614 6.60139 16.8316C6.84136 16.5946 7.1817 16.5 7.51891 16.5C7.78006 16.5 8.04249 16.5566 8.25748 16.7049C8.80316 17.0812 8.92052 17.4637 9.08332 18.0833L9.30679 19.1448C9.36085 19.4016 9.65014 19.5283 9.88629 19.4138C10.7868 18.9773 11.5067 18.9499 12.3897 19.5578C12.6332 19.7254 12.7953 19.9843 12.8802 20.2675C12.9513 20.5044 13.1694 20.6667 13.4167 20.6667H15.5833V22.3333H13.2014C12.5094 22.3333 11.8698 21.9646 11.5231 21.3657L11.3134 21.0035C11.2226 20.8466 11.055 20.75 10.8737 20.75C10.6909 20.75 10.5188 20.8361 10.4091 20.9823L10.3333 21.0833L9.7563 22.045C9.64899 22.2239 9.4557 22.3333 9.24711 22.3333C8.99225 22.3333 8.75797 22.1934 8.63714 21.969L8.52214 21.7554C8.34153 21.42 8.20697 21.0618 8.12208 20.6904L7.89581 19.7005C7.81397 19.3424 7.30806 19.3312 7.21038 19.6852L7.01133 20.4068C6.94848 20.6346 6.85636 20.8534 6.73727 21.0575L6.62621 21.2479C6.43374 21.5779 6.16518 21.857 5.84292 22.0621C5.56453 22.2392 5.24138 22.3333 4.9114 22.3333Z" fill="white"/>
  <path d="M26.2571 7.5752C25.9907 7.75832 25.4247 8.2411 25.0085 8.67394L24.276 9.43972L27.9052 13.1022L28.7209 12.3031C29.1704 11.8703 29.6365 11.3209 29.7697 11.0712C30.3024 10.039 29.9029 8.907 28.6543 7.90815C27.8552 7.27554 26.9396 7.14236 26.2571 7.5752Z" fill="url(#paint1_linear_2176_4591)"/>
  <path d="M19.2509 14.5293C15.4886 18.3249 15.705 17.992 15.139 20.4725C14.8726 21.6211 14.9891 22.2204 15.4886 22.3869C15.655 22.4369 16.6373 22.2537 17.686 21.9874L19.6005 21.5046L26.5259 14.5792L24.7446 12.7979C23.7624 11.7991 22.9134 11 22.8634 11C22.8135 11 21.182 12.5982 19.2509 14.5293Z" fill="url(#paint2_linear_2176_4591)"/>
  <defs>
    <linearGradient id="paint0_linear_2176_4591" x1="2.09789e-08" y1="4.47619" x2="23.4816" y2="10.3491" gradientUnits="userSpaceOnUse">
      <stop stop-color="#E92FED"/>
      <stop offset="1" stop-color="#7C15CD"/>
    </linearGradient>
    <linearGradient id="paint1_linear_2176_4591" x1="15" y1="9.47625" x2="31.8562" y2="15.0705" gradientUnits="userSpaceOnUse">
      <stop stop-color="#E92FED"/>
      <stop offset="1" stop-color="#7C15CD"/>
    </linearGradient>
    <linearGradient id="paint2_linear_2176_4591" x1="15" y1="9.47625" x2="31.8562" y2="15.0705" gradientUnits="userSpaceOnUse">
      <stop stop-color="#E92FED"/>
      <stop offset="1" stop-color="#7C15CD"/>
    </linearGradient>
  </defs>
</svg>