<?xml version="1.0" encoding="UTF-8"?>
<svg xmlns="http://www.w3.org/2000/svg" width="30" height="26" viewBox="0 0 30 26" fill="none">
  <path fill-rule="evenodd" clip-rule="evenodd" d="M29.6718 9.24948L23.595 15.3263C23.1488 15.7725 22.4272 15.7725 21.9856 15.3263L18.9472 12.2879C18.501 11.8416 18.501 11.12 18.9472 10.6785C19.3935 10.237 20.1151 10.2322 20.5566 10.6785L22.788 12.9098L28.0577 7.63533C28.5039 7.18907 29.2256 7.18907 29.6671 7.63533C30.1086 8.0816 30.1133 8.80322 29.6671 9.24473L29.6718 9.24948Z" fill="url(#paint0_linear_2176_4596)"/>
  <path d="M4.55759 6.92321C4.55759 5.31155 5.19782 3.76589 6.33744 2.62627C7.47706 1.48665 9.02272 0.84642 10.6344 0.84642C12.246 0.84642 13.7917 1.48665 14.9313 2.62627C16.0709 3.76589 16.7112 5.31155 16.7112 6.92321C16.7112 8.53487 16.0709 10.0805 14.9313 11.2201C13.7917 12.3598 12.246 13 10.6344 13C9.02272 13 7.47706 12.3598 6.33744 11.2201C5.19782 10.0805 4.55759 8.53487 4.55759 6.92321Z" fill="#9CACCC" fill-opacity="0.4"/>
  <path d="M0 23.7436C0 19.0673 3.7885 15.2788 8.46478 15.2788H12.804C17.4803 15.2788 21.2688 19.0673 21.2688 23.7436C21.2688 24.5222 20.6373 25.1536 19.8588 25.1536H1.41001C0.631417 25.1536 0 24.5222 0 23.7436Z" fill="#9CACCC" fill-opacity="0.4"/>
  <defs>
    <linearGradient id="paint0_linear_2176_4596" x1="15" y1="0.84642" x2="15" y2="25.1536" gradientUnits="userSpaceOnUse">
      <stop stop-color="#9CACCC"/>
      <stop offset="1" stop-color="#7487A6"/>
    </linearGradient>
  </defs>
</svg>