<?xml version="1.0" encoding="UTF-8"?>
<svg xmlns="http://www.w3.org/2000/svg" width="22" height="22" viewBox="0 0 22 22" fill="none">
  <path d="M2.0621 11.1722C2.0621 6.23605 6.06171 2.23644 10.9979 2.23644C13.7087 2.23644 16.1359 3.44362 17.777 5.35106C18.1465 5.78496 18.7995 5.83222 19.2291 5.46276C19.6587 5.0933 19.7102 4.4403 19.3408 4.0107C17.3259 1.66077 14.3359 0.174339 10.9979 0.174339C4.92326 0.174339 0 5.0976 0 11.1722V12.8906C0 13.462 0.459676 13.9217 1.03105 13.9217C1.60242 13.9217 2.0621 13.462 2.0621 12.8906V11.1722ZM21.7594 8.89959C21.6434 8.3411 21.0935 7.98453 20.5393 8.10482C19.9852 8.22511 19.6243 8.77071 19.7446 9.32489C19.8692 9.92204 19.9379 10.5407 19.9379 11.1765V12.8949C19.9379 13.4663 20.3976 13.926 20.969 13.926C21.5403 13.926 22 13.4663 22 12.8949V11.1722C22 10.3946 21.9184 9.63421 21.7637 8.89959H21.7594ZM10.9979 3.61117C10.1816 3.61117 9.39114 3.74005 8.65651 3.98063C8.00352 4.19543 7.85315 4.99879 8.29994 5.5229C8.60496 5.87947 9.1076 5.98688 9.56298 5.86229C10.0184 5.73771 10.4995 5.67326 10.9979 5.67326C14.0351 5.67326 16.4968 8.13489 16.4968 11.1722V12.2419C16.4968 13.3245 16.4323 14.4028 16.3078 15.4768C16.2347 16.104 16.7116 16.6711 17.3474 16.6711C17.8543 16.6711 18.2882 16.3017 18.3484 15.799C18.4901 14.6219 18.5632 13.4362 18.5632 12.2462V11.1722C18.5632 6.99644 15.1779 3.61117 11.0021 3.61117H10.9979ZM6.47413 6.56254C6.08319 6.10716 5.38723 6.0728 5.01777 6.54536C4.02539 7.82128 3.43683 9.428 3.43683 11.1722V12.2419C3.43683 13.2815 3.32513 14.3212 3.10174 15.3308C2.95567 16.0009 3.44112 16.6711 4.12849 16.6711C4.57957 16.6711 4.9834 16.3704 5.08221 15.9279C5.35716 14.7207 5.49893 13.4878 5.49893 12.2419V11.1722C5.49893 10.0037 5.86409 8.92107 6.48272 8.03179C6.79203 7.585 6.8264 6.97496 6.47413 6.56254ZM10.9979 7.048C8.72095 7.048 6.87366 8.89529 6.87366 11.1722V12.2419C6.87366 13.7842 6.67604 15.3136 6.2808 16.8C6.11756 17.4143 6.56864 18.0458 7.20445 18.0458C7.61258 18.0458 7.97344 17.7795 8.08084 17.3843C8.53193 15.7088 8.76391 13.9818 8.76391 12.2419V11.1722C8.76391 9.93923 9.76489 8.93825 10.9979 8.93825C12.2308 8.93825 13.2318 9.93923 13.2318 11.1722V12.2419C13.2318 13.8014 13.0814 15.3522 12.785 16.8773C12.669 17.4745 13.1158 18.0458 13.7215 18.0458C14.1597 18.0458 14.5378 17.7451 14.6237 17.3155C14.9545 15.6487 15.122 13.9517 15.122 12.2419V11.1722C15.122 8.89529 13.2748 7.048 10.9979 7.048ZM12.0289 11.1722C12.0289 10.6008 11.5692 10.1411 10.9979 10.1411C10.4265 10.1411 9.9668 10.6008 9.9668 11.1722V12.2419C9.9668 14.8152 9.49424 17.3671 8.57059 19.7686L8.31713 20.4259C8.11092 20.9586 8.37727 21.5557 8.90998 21.7576C9.44269 21.9595 10.0398 21.6975 10.2417 21.1648L10.4952 20.5075C11.5091 17.8697 12.0289 15.0687 12.0289 12.2419V11.1722Z" fill="white"/>
</svg>